<?xml version="1.0" encoding="utf-8"?>
<!-- Generator: Adobe Illustrator 22.0.0, SVG Export Plug-In . SVG Version: 6.00 Build 0)  -->
<svg version="1.1" id="Layer_1" xmlns="http://www.w3.org/2000/svg" xmlns:xlink="http://www.w3.org/1999/xlink" x="0px" y="0px"
	 viewBox="0 0 708.7 708.7" style="enable-background:new 0 0 708.7 708.7;" xml:space="preserve">
<style type="text/css">
	.st0{fill:url(#SVGID_1_);}
	.st1{fill:url(#SVGID_2_);}
	.st2{fill:none;stroke:#000000;stroke-miterlimit:10;}
</style>
<g id="Layer_1_1_">
	
		<image style="display:none;overflow:visible;enable-background:new    ;" width="1024" height="559" xlink:href="74BACB2D.jpeg"  transform="matrix(0.6921 0 0 0.6921 -0.6481 192.3902)">
	</image>
</g>
<g id="Layer_2_1_">
	
		<linearGradient id="SVGID_1_" gradientUnits="userSpaceOnUse" x1="105.7503" y1="354.3114" x2="594.0059" y2="354.3114" gradientTransform="matrix(1 0 0 -1 0 708.6614)">
		<stop  offset="0" style="stop-color:#A9743C"/>
		<stop  offset="8.137941e-03" style="stop-color:#A7743C"/>
		<stop  offset="0.1777" style="stop-color:#80723B"/>
		<stop  offset="0.348" style="stop-color:#5F6E3A"/>
		<stop  offset="0.5164" style="stop-color:#426C39"/>
		<stop  offset="0.6824" style="stop-color:#276939"/>
		<stop  offset="0.845" style="stop-color:#066838"/>
		<stop  offset="1" style="stop-color:#006838"/>
	</linearGradient>
	<path class="st0" d="M502.8,385.8l30-24.5v151.9h33.2V298L427.6,422.2c-63.1-55-126.3-109.9-189.6-164.9
		c-1.3-0.6-22.1-9.4-32.6,0.4c-5.5,5.1-5.7,12.6-5.7,13.4c-0.4,11.3,10.4,21.7,80.9,65.4c0,0,13.9,8.7,32,22.1
		c18.5,13.8,22.6,18.8,25.1,22.1c10.4,14.1,12.6,28.8,13.8,36.9c3.6,25.3-4.1,44.9-7.7,53.7c-26,62.6-82.2,73.5-133.6,72
		S95.3,479.1,107.2,419.7l83.1,2.5c0,0,23.7,57.7,62.6,27.7c2.6-2.1,5.7-5.5,6.6-9.4c2.5-11.7-16.6-25.3-38.1-39.2
		c-18.7-12.1-28.3-13.8-53.1-30.5c-5.1-3.4-7.5-5.1-10.6-7.4c-7.4-5.7-47.3-35.8-50.9-83.3c-0.4-5.7-0.2-27.7,10-50.1
		c29.2-64.1,132.9-83.1,180.4-45c47.5,37.9,106.9,98.9,106.9,98.9l-20.5,20.5l-105.2-96.5c0,0-50.7-35.6-107.6,4
		c-4.3,3-34.1,28.3-31.1,66c1.5,17.7,9.6,30.5,14.1,36.8c4.5,5.8,11.5,14.5,21.3,23.2c23.9,21.3,38.8,20.9,65.2,38.6
		c23.9,16.2,49.8,33.2,49.8,57.9c0,13.8-6.8,27.3-20.5,39.4c-34.9,30.9-90.1-0.8-100.5-23.7l-30-3.2c0,0,15.1,68.8,88.6,68.8
		s91-61.3,91-61.3c1.3-8.3,2.6-23.4-3.4-40.1c-2.6-7.4-7.5-17.5-21.1-31.5c-9-9.4-20.9-19.6-55.8-39.4
		c-36.8-20.9-49.8-24.5-61.3-42.2c-3.8-5.8-9.2-14.3-9.4-26c-0.2-20.4,16.2-39,34.5-46.9c10.6-4.7,23-5.7,37.5-2.1
		c37.9,9.4,53,33.2,82.2,60.9c29.2,27.7,103.7,93.3,103.7,93.3L594,230.7v309.1h-90.1L502.8,385.8z"/>
	
		<linearGradient id="SVGID_2_" gradientUnits="userSpaceOnUse" x1="403.0916" y1="454.4032" x2="596.8329" y2="454.4032" gradientTransform="matrix(1 0 0 -1 0 708.6614)">
		<stop  offset="0.2278" style="stop-color:#006838"/>
		<stop  offset="0.8509" style="stop-color:#A9743C"/>
	</linearGradient>
	<polygon class="st1" points="403.1,321 576.3,165.5 596.8,169.1 596.8,191.3 426.8,343 	"/>
	<path class="st2" d="M53.9,379.8"/>
	<path class="st2" d="M405.5,482.7"/>
	<path class="st2" d="M382,438.4"/>
</g>
</svg>
